<svg width="30" height="30" viewBox="0 0 30 30" fill="none" xmlns="http://www.w3.org/2000/svg">
<path d="M15 28.3333C22.3638 28.3333 28.3333 22.3638 28.3333 15C28.3333 7.63621 22.3638 1.66667 15 1.66667C7.63621 1.66667 1.66667 7.63621 1.66667 15C1.66667 22.3638 7.63621 28.3333 15 28.3333Z" stroke="#8E8E93" stroke-width="2"/>
<path d="M11 20.3333C12.1333 21.1733 13.5133 21.6667 15 21.6667C16.4867 21.6667 17.8667 21.1733 19 20.3333" stroke="#8E8E93" stroke-width="2" stroke-linecap="round"/>
<path d="M20.3333 13C20.3333 14.104 19.736 15 19 15C18.264 15 17.6667 14.104 17.6667 13C17.6667 11.896 18.264 11 19 11C19.736 11 20.3333 11.896 20.3333 13Z" fill="#8E8E93"/>
<path d="M11 15C11.7364 15 12.3333 14.1046 12.3333 13C12.3333 11.8954 11.7364 11 11 11C10.2636 11 9.66667 11.8954 9.66667 13C9.66667 14.1046 10.2636 15 11 15Z" fill="#8E8E93"/>
</svg>
