<svg width="26" height="28" viewBox="0 0 26 28" fill="none" xmlns="http://www.w3.org/2000/svg">
<path d="M24 5H19.5V3.5C19.5 2.57174 19.1313 1.6815 18.4749 1.02513C17.8185 0.368749 16.9283 0 16 0H10C9.07174 0 8.1815 0.368749 7.52513 1.02513C6.86875 1.6815 6.5 2.57174 6.5 3.5V5H2C1.60218 5 1.22064 5.15804 0.93934 5.43934C0.658035 5.72064 0.5 6.10218 0.5 6.5C0.5 6.89782 0.658035 7.27936 0.93934 7.56066C1.22064 7.84196 1.60218 8 2 8H2.5V25C2.5 25.663 2.76339 26.2989 3.23223 26.7678C3.70107 27.2366 4.33696 27.5 5 27.5H21C21.663 27.5 22.2989 27.2366 22.7678 26.7678C23.2366 26.2989 23.5 25.663 23.5 25V8H24C24.3978 8 24.7794 7.84196 25.0607 7.56066C25.342 7.27936 25.5 6.89782 25.5 6.5C25.5 6.10218 25.342 5.72064 25.0607 5.43934C24.7794 5.15804 24.3978 5 24 5ZM9.5 3.5C9.5 3.36739 9.55268 3.24021 9.64645 3.14645C9.74021 3.05268 9.86739 3 10 3H16C16.1326 3 16.2598 3.05268 16.3536 3.14645C16.4473 3.24021 16.5 3.36739 16.5 3.5V5H9.5V3.5ZM20.5 24.5H5.5V8H20.5V24.5ZM11.5 12V20C11.5 20.3978 11.342 20.7794 11.0607 21.0607C10.7794 21.342 10.3978 21.5 10 21.5C9.60218 21.5 9.22064 21.342 8.93934 21.0607C8.65804 20.7794 8.5 20.3978 8.5 20V12C8.5 11.6022 8.65804 11.2206 8.93934 10.9393C9.22064 10.658 9.60218 10.5 10 10.5C10.3978 10.5 10.7794 10.658 11.0607 10.9393C11.342 11.2206 11.5 11.6022 11.5 12ZM17.5 12V20C17.5 20.3978 17.342 20.7794 17.0607 21.0607C16.7794 21.342 16.3978 21.5 16 21.5C15.6022 21.5 15.2206 21.342 14.9393 21.0607C14.658 20.7794 14.5 20.3978 14.5 20V12C14.5 11.6022 14.658 11.2206 14.9393 10.9393C15.2206 10.658 15.6022 10.5 16 10.5C16.3978 10.5 16.7794 10.658 17.0607 10.9393C17.342 11.2206 17.5 11.6022 17.5 12Z" fill="#8E8E93"/>
</svg>
